<svg xmlns="http://www.w3.org/2000/svg" viewBox="0 0 96 96" fill="none">
  <title>Drift CLI</title>
  <defs>
    <linearGradient id="current" x1="15" y1="29" x2="82" y2="72" gradientUnits="userSpaceOnUse">
      <stop stop-color="#8bbbd4" />
      <stop offset="1" stop-color="#d5a86c" />
    </linearGradient>
  </defs>
  <rect width="96" height="96" rx="27" fill="#0a1d29" />
  <path d="M16 66c10-16 19-23 31-21 15 2 19 18 34 13" stroke="url(#current)" stroke-width="5" stroke-linecap="round" />
  <path d="M18 75c12 0 17-7 26-7 10 0 15 8 29 8 4 0 7-1 10-3" stroke="#8bbbd4" stroke-opacity=".72" stroke-width="3" stroke-linecap="round" />
  <circle cx="17" cy="66" r="7" fill="#0a1d29" stroke="#8bbbd4" stroke-width="4" />
  <circle cx="48" cy="46" r="6" fill="#0a1d29" stroke="#d5a86c" stroke-width="4" />
  <circle cx="81" cy="58" r="7" fill="#0a1d29" stroke="#8bbbd4" stroke-width="4" />
  <circle cx="44" cy="68" r="4.5" fill="#d5a86c" />
  <path d="M25 25l11 9-11 9" stroke="#d5a86c" stroke-width="4.5" stroke-linecap="round" stroke-linejoin="round" />
  <path d="M44 43h20" stroke="#8bbbd4" stroke-width="4.5" stroke-linecap="round" />
</svg>
